<?xml version="1.0" encoding="UTF-8"?>
<svg width="900" height="400" xmlns="http://www.w3.org/2000/svg">
<defs>
    <style>
        text { font-family: Arial, sans-serif; }
        .title { font-size: 16px; font-weight: bold; }
        .label { font-size: 12px; }
        .tick { font-size: 10px; }
        .legend { font-size: 11px; }
    </style>
</defs>
<text x="450" y="30" text-anchor="middle" class="title">Variational Principle: Energy-Entropy Competition</text>
<text x="255" y="60" text-anchor="middle" class="label" font-weight="bold">Free Energy Landscape</text>
<rect x="80" y="70" width="350" height="280" fill="#f8f9fa" stroke="#ddd"/>
<polyline points="91.7,172.9 95.2,194.7 98.7,210.0 102.2,221.5 105.7,230.6 109.2,238.0 112.7,244.2 116.2,249.4 119.7,254.0 123.2,257.9 126.7,261.5 130.2,264.6 133.7,267.4 137.2,270.0 140.7,272.3 144.2,274.5 147.7,276.5 151.2,278.3 154.7,280.0 158.2,281.6 161.7,283.1 165.2,284.5 168.7,285.8 172.2,287.0 175.7,288.2 179.2,289.3 182.7,290.3 186.2,291.3 189.7,292.2 193.2,293.1 196.7,294.0 200.2,294.8 203.7,295.6 207.2,296.4 210.7,297.1 214.2,297.8 217.7,298.4 221.2,299.1 224.7,299.7 228.2,300.3 231.7,300.9 235.2,301.4 238.7,302.0 242.2,302.5 245.7,303.0 249.2,303.5 252.7,304.0 256.2,304.4 259.7,304.9 263.2,305.3 266.7,305.7 270.2,306.1 273.7,306.5 277.2,306.9 280.7,307.3 284.2,307.7 287.7,308.0 291.2,308.4 294.7,308.7 298.2,309.0 301.7,309.4 305.2,309.7 308.7,310.0 312.2,310.3 315.7,310.6 319.2,310.9 322.7,311.2 326.2,311.4 329.7,311.7 333.2,312.0 336.7,312.2 340.2,312.5 343.7,312.7 347.2,313.0 350.7,313.2 354.2,313.5 357.7,313.7 361.2,313.9 364.7,314.1 368.2,314.4 371.7,314.6 375.2,314.8 378.7,315.0 382.2,315.2 385.7,315.4 389.2,315.6 392.7,315.8 396.2,316.0 399.7,316.2 403.2,316.4 406.7,316.5 410.2,316.7 413.7,316.9 417.2,317.1 420.7,317.2 424.2,317.4 427.7,317.6 431.2,317.7 434.7,317.9 438.2,318.0" fill="none" stroke="#3498db" stroke-width="2" stroke-dasharray="5,5"/>
<polyline points="91.7,353.9 95.2,354.5 98.7,354.9 102.2,355.3 105.7,355.6 109.2,355.8 112.7,356.0 116.2,356.1 119.7,356.2 123.2,356.2 126.7,356.2 130.2,356.1 133.7,356.0 137.2,355.9 140.7,355.7 144.2,355.5 147.7,355.3 151.2,355.1 154.7,354.8 158.2,354.5 161.7,354.2 165.2,353.9 168.7,353.5 172.2,353.1 175.7,352.7 179.2,352.3 182.7,351.9 186.2,351.4 189.7,351.0 193.2,350.5 196.7,350.0 200.2,349.5 203.7,349.0 207.2,348.4 210.7,347.9 214.2,347.3 217.7,346.7 221.2,346.1 224.7,345.5 228.2,344.9 231.7,344.3 235.2,343.6 238.7,343.0 242.2,342.3 245.7,341.6 249.2,340.9 252.7,340.3 256.2,339.5 259.7,338.8 263.2,338.1 266.7,337.4 270.2,336.6 273.7,335.9 277.2,335.1 280.7,334.3 284.2,333.5 287.7,332.8 291.2,332.0 294.7,331.2 298.2,330.3 301.7,329.5 305.2,328.7 308.7,327.8 312.2,327.0 315.7,326.1 319.2,325.3 322.7,324.4 326.2,323.5 329.7,322.6 333.2,321.8 336.7,320.9 340.2,320.0 343.7,319.0 347.2,318.1 350.7,317.2 354.2,316.3 357.7,315.3 361.2,314.4 364.7,313.4 368.2,312.5 371.7,311.5 375.2,310.5 378.7,309.6 382.2,308.6 385.7,307.6 389.2,306.6 392.7,305.6 396.2,304.6 399.7,303.6 403.2,302.6 406.7,301.6 410.2,300.5 413.7,299.5 417.2,298.5 420.7,297.4 424.2,296.4 427.7,295.3 431.2,294.3 434.7,293.2 438.2,292.1" fill="none" stroke="#e74c3c" stroke-width="2" stroke-dasharray="5,5"/>
<polyline points="91.7,176.8 95.2,199.1 98.7,214.9 102.2,226.8 105.7,236.2 109.2,243.8 112.7,250.2 116.2,255.5 119.7,260.1 123.2,264.1 126.7,267.6 130.2,270.7 133.7,273.4 137.2,275.9 140.7,278.1 144.2,280.0 147.7,281.8 151.2,283.4 154.7,284.8 158.2,286.1 161.7,287.3 165.2,288.3 168.7,289.3 172.2,290.1 175.7,290.9 179.2,291.6 182.7,292.2 186.2,292.7 189.7,293.2 193.2,293.6 196.7,294.0 200.2,294.3 203.7,294.6 207.2,294.8 210.7,295.0 214.2,295.1 217.7,295.2 221.2,295.2 224.7,295.2 228.2,295.2 231.7,295.2 235.2,295.1 238.7,295.0 242.2,294.8 245.7,294.6 249.2,294.4 252.7,294.2 256.2,294.0 259.7,293.7 263.2,293.4 266.7,293.1 270.2,292.8 273.7,292.4 277.2,292.0 280.7,291.6 284.2,291.2 287.7,290.8 291.2,290.3 294.7,289.9 298.2,289.4 301.7,288.9 305.2,288.4 308.7,287.8 312.2,287.3 315.7,286.7 319.2,286.2 322.7,285.6 326.2,285.0 329.7,284.4 333.2,283.7 336.7,283.1 340.2,282.5 343.7,281.8 347.2,281.1 350.7,280.4 354.2,279.7 357.7,279.0 361.2,278.3 364.7,277.6 368.2,276.8 371.7,276.1 375.2,275.3 378.7,274.6 382.2,273.8 385.7,273.0 389.2,272.2 392.7,271.4 396.2,270.6 399.7,269.8 403.2,268.9 406.7,268.1 410.2,267.3 413.7,266.4 417.2,265.5 420.7,264.7 424.2,263.8 427.7,262.9 431.2,262.0 434.7,261.1 438.2,260.2" fill="none" stroke="#2ecc71" stroke-width="3"/>
<circle cx="151.98333333333335" cy="283.7126430004562" r="6" fill="#2ecc71" stroke="black" stroke-width="2"/>
<line x1="151.98333333333335" y1="350" x2="151.98333333333335" y2="283.7126430004562" stroke="black" stroke-width="1" stroke-dasharray="3,3"/>
<text x="161.98333333333335" y="273.7126430004562" class="label" font-size="10">d* ≈ 0.617</text>
<line x1="90" y1="90" x2="120" y2="90" stroke="#3498db" stroke-width="2" stroke-dasharray="5,5"/>
<text x="130" y="95" class="legend">Energy: A/d^α</text>
<line x1="90" y1="110" x2="120" y2="110" stroke="#e74c3c" stroke-width="2" stroke-dasharray="5,5"/>
<text x="130" y="115" class="legend">Entropy: T·d·log(d)</text>
<line x1="90" y1="130" x2="120" y2="130" stroke="#2ecc71" stroke-width="3"/>
<text x="130" y="135" class="legend">Free Energy</text>
<line x1="80" y1="350" x2="430" y2="350" stroke="black" stroke-width="2"/>
<line x1="80" y1="70" x2="80" y2="350" stroke="black" stroke-width="2"/>
<text x="255" y="380" text-anchor="middle" class="label">Dimension d</text>
<text x="40" y="210" text-anchor="middle" class="label" transform="rotate(-90 40 210)">Energy</text>
<text x="675" y="60" text-anchor="middle" class="label" font-weight="bold">Dimension vs Temperature</text>
<rect x="500" y="70" width="350" height="280" fill="#f8f9fa" stroke="#ddd"/>
<polyline points="500.0,150.0 503.5,155.6 507.0,160.8 510.5,165.8 514.0,170.5 517.5,175.0 521.0,179.3 524.5,183.3 528.0,187.2 531.5,190.9 535.0,194.4 538.5,197.8 542.0,201.1 545.5,204.2 549.0,207.1 552.5,210.0 556.0,212.7 559.5,215.4 563.0,217.9 566.5,220.4 570.0,222.7 573.5,225.0 577.0,227.2 580.5,229.3 584.0,231.4 587.5,233.3 591.0,235.2 594.5,237.1 598.0,238.9 601.5,240.6 605.0,242.3 608.5,243.9 612.0,245.5 615.5,247.1 619.0,248.6 622.5,250.0 626.0,251.4 629.5,252.8 633.0,254.1 636.5,255.4 640.0,256.7 643.5,257.9 647.0,259.1 650.5,260.3 654.0,261.4 657.5,262.5 661.0,263.6 664.5,264.6 668.0,265.7 671.5,266.7 675.0,267.6 678.5,268.6 682.0,269.5 685.5,270.5 689.0,271.3 692.5,272.2 696.0,273.1 699.5,273.9 703.0,274.7 706.5,275.5 710.0,276.3 713.5,277.1 717.0,277.8 720.5,278.6 724.0,279.3 727.5,280.0 731.0,280.7 734.5,281.4 738.0,282.0 741.5,282.7 745.0,283.3 748.5,284.0 752.0,284.6 755.5,285.2 759.0,285.8 762.5,286.4 766.0,286.9 769.5,287.5 773.0,288.1 776.5,288.6 780.0,289.1 783.5,289.7 787.0,290.2 790.5,290.7 794.0,291.2 797.5,291.7 801.0,292.1 804.5,292.6 808.0,293.1 811.5,293.5 815.0,294.0 818.5,294.4 822.0,294.9 825.5,295.3 829.0,295.7 832.5,296.2 836.0,296.6 839.5,297.0 843.0,297.4 846.5,297.8" fill="none" stroke="#3498db" stroke-width="3"/>
<line x1="500" y1="350" x2="850" y2="350" stroke="black" stroke-width="2"/>
<line x1="500" y1="70" x2="500" y2="350" stroke="black" stroke-width="2"/>
<text x="675" y="380" text-anchor="middle" class="label">Temperature T</text>
<text x="460" y="210" text-anchor="middle" class="label" transform="rotate(-90 460 210)">Optimal d*</text>
</svg>