<?xml version="1.0" encoding="UTF-8"?>
<svg width="900" height="450" xmlns="http://www.w3.org/2000/svg">
<defs>
    <style>
        text { font-family: Arial, sans-serif; }
        .title { font-size: 16px; font-weight: bold; }
        .label { font-size: 12px; }
        .tick { font-size: 10px; }
        .legend { font-size: 11px; }
    </style>
</defs>
<text x="450" y="30" text-anchor="middle" class="title">Simulated-Empirical Divergence in Network Dimensions</text>
<text x="450" y="50" text-anchor="middle" class="label" font-style="italic">BA/WS simulated data vs. real-world empirical measurements</text>
<rect x="100" y="90" width="700" height="280" fill="#f8f9fa" stroke="#ddd"/>
<rect x="110.0" y="125.83999999999997" width="25.0" height="244.16000000000003" fill="#3498db" opacity="0.8" stroke="black" stroke-width="0.5"/>
<text x="122.5" y="120.83999999999997" text-anchor="middle" class="tick" font-size="9">4.36</text>
<rect x="140.0" y="314.0" width="25.0" height="56.0" fill="#e74c3c" opacity="0.8" stroke="black" stroke-width="0.5"/>
<text x="135.0" y="390" text-anchor="end" class="label" font-size="10" transform="rotate(-45 135.0 390)">Internet AS</text>
<rect x="210.0" y="202.0" width="25.0" height="168.0" fill="#3498db" opacity="0.8" stroke="black" stroke-width="0.5"/>
<text x="222.5" y="197.0" text-anchor="middle" class="tick" font-size="9">3.00</text>
<rect x="240.0" y="314.0" width="25.0" height="56.0" fill="#e74c3c" opacity="0.8" stroke="black" stroke-width="0.5"/>
<text x="235.0" y="390" text-anchor="end" class="label" font-size="10" transform="rotate(-45 235.0 390)">DBLP</text>
<rect x="310.0" y="235.6" width="25.0" height="134.4" fill="#3498db" opacity="0.8" stroke="black" stroke-width="0.5"/>
<text x="322.5" y="230.6" text-anchor="middle" class="tick" font-size="9">2.40</text>
<rect x="340.0" y="314.0" width="25.0" height="56.0" fill="#e74c3c" opacity="0.8" stroke="black" stroke-width="0.5"/>
<text x="335.0" y="390" text-anchor="end" class="label" font-size="10" transform="rotate(-45 335.0 390)">Yeast PPI</text>
<rect x="410.0" y="226.07999999999998" width="25.0" height="143.92000000000002" fill="#3498db" opacity="0.8" stroke="black" stroke-width="0.5"/>
<text x="422.5" y="221.07999999999998" text-anchor="middle" class="tick" font-size="9">2.57</text>
<rect x="440.0" y="314.0" width="25.0" height="56.0" fill="#e74c3c" opacity="0.8" stroke="black" stroke-width="0.5"/>
<text x="435.0" y="390" text-anchor="end" class="label" font-size="10" transform="rotate(-45 435.0 390)">Facebook</text>
<rect x="510.0" y="258.0" width="25.0" height="112.0" fill="#3498db" opacity="0.8" stroke="black" stroke-width="0.5"/>
<text x="522.5" y="253.0" text-anchor="middle" class="tick" font-size="9">2.00</text>
<rect x="540.0" y="314.0" width="25.0" height="56.0" fill="#e74c3c" opacity="0.8" stroke="black" stroke-width="0.5"/>
<text x="535.0" y="390" text-anchor="end" class="label" font-size="10" transform="rotate(-45 535.0 390)">Twitter</text>
<rect x="610.0" y="251.84" width="25.0" height="118.16" fill="#3498db" opacity="0.8" stroke="black" stroke-width="0.5"/>
<text x="622.5" y="246.84" text-anchor="middle" class="tick" font-size="9">2.11</text>
<rect x="640.0" y="314.0" width="25.0" height="56.0" fill="#e74c3c" opacity="0.8" stroke="black" stroke-width="0.5"/>
<text x="635.0" y="390" text-anchor="end" class="label" font-size="10" transform="rotate(-45 635.0 390)">Power Grid</text>
<rect x="710.0" y="300.56" width="25.0" height="69.44" fill="#3498db" opacity="0.8" stroke="black" stroke-width="0.5"/>
<text x="722.5" y="295.56" text-anchor="middle" class="tick" font-size="9">1.24</text>
<rect x="740.0" y="314.0" width="25.0" height="56.0" fill="#e74c3c" opacity="0.8" stroke="black" stroke-width="0.5"/>
<text x="735.0" y="390" text-anchor="end" class="label" font-size="10" transform="rotate(-45 735.0 390)">Email</text>
<line x1="100" y1="370" x2="800" y2="370" stroke="black" stroke-width="2"/>
<line x1="100" y1="90" x2="100" y2="370" stroke="black" stroke-width="2"/>
<line x1="95" y1="370.0" x2="100" y2="370.0" stroke="black"/>
<text x="90" y="374.0" text-anchor="end" class="tick">0</text>
<line x1="95" y1="314.0" x2="100" y2="314.0" stroke="black"/>
<text x="90" y="318.0" text-anchor="end" class="tick">1</text>
<line x1="95" y1="258.0" x2="100" y2="258.0" stroke="black"/>
<text x="90" y="262.0" text-anchor="end" class="tick">2</text>
<line x1="95" y1="202.0" x2="100" y2="202.0" stroke="black"/>
<text x="90" y="206.0" text-anchor="end" class="tick">3</text>
<line x1="95" y1="146.0" x2="100" y2="146.0" stroke="black"/>
<text x="90" y="150.0" text-anchor="end" class="tick">4</text>
<line x1="95" y1="90.0" x2="100" y2="90.0" stroke="black"/>
<text x="90" y="94.0" text-anchor="end" class="tick">5</text>
<text x="50" y="230" text-anchor="middle" class="label" transform="rotate(-90 50 230)">Dimension</text>
<rect x="600" y="110" width="20" height="20" fill="#3498db" opacity="0.8"/>
<text x="630" y="125" class="legend">Empirical (Real Networks)</text>
<rect x="600" y="140" width="20" height="20" fill="#e74c3c" opacity="0.8"/>
<text x="630" y="155" class="legend">Simulated (BA/WS Models)</text>
<text x="450" y="450" text-anchor="middle" class="label" fill="#e74c3c">Note: Deviation ranges from 24% (Email) to 336% (Internet AS)</text>
</svg>